# xmcd
#
# Track frame offsets:
#	150
#	5175
#	22612
#	29932
#	43757
#	48880
#	56365
#	61762
#	82197
#	88170
#	103077
#	112742
#	126197
#	132345
#	141030
#	147095
#	165022
#
# Disc length: 2307 seconds
#
# Revision: 0
# Processed by: cddbd v1.5.1PL0 Copyright (c) Steve Scherf et al.
# Submitted via: audiograbber 1.81.02
#
DISCID=de090111
DTITLE=Tim Thomas und Olaf Franke - Mit Freddy durch die Bibel 9 - Linsen für J
DTITLE=akob (www.gerth.de)
DYEAR=2004
DGENRE=Musical
TTITLE0=Das Bobelbabelbibelbuch
TTITLE1=Eugen schreibt ein Hörspiel
TTITLE2=Jakob
TTITLE3=Jakob und Esau
TTITLE4=Jakob und Esau - Lied
TTITLE5=Der Tausch
TTITLE6=Isaak ist auf Zack
TTITLE7=Isaak möchte seinen Sohn segnen
TTITLE8=Jakobs Wunsch
TTITLE9=Esau schwört Rache
TTITLE10=Der Betrüger wird betrogen
TTITLE11=Labans List
TTITLE12=Der Betrug fliegt auf
TTITLE13=Jakobs Verwandlung
TTITLE14=Laban ist ein Schlitzohr
TTITLE15=Jakob will Gott vertrauen
TTITLE16=Finale
EXTD=
EXTT0=
EXTT1=
EXTT2=
EXTT3=
EXTT4=
EXTT5=
EXTT6=
EXTT7=
EXTT8=
EXTT9=
EXTT10=
EXTT11=
EXTT12=
EXTT13=
EXTT14=
EXTT15=
EXTT16=
PLAYORDER=
